<?xml version="1.0" standalone="no"?>
<!DOCTYPE svg PUBLIC "-//W3C//DTD SVG 20010904//EN"
 "http://www.w3.org/TR/2001/REC-SVG-20010904/DTD/svg10.dtd">
<svg version="1.0" xmlns="http://www.w3.org/2000/svg"
 width="40.000000pt" height="30.000000pt" viewBox="0 0 649.000000 1280.000000"
 preserveAspectRatio="xMidYMid meet">
<metadata>
Created by potrace 1.15, written by Peter Selinger 2001-2017
</metadata>
<g transform="translate(0.000000,1280.000000) scale(0.100000,-0.100000)"
fill="#ffffff" stroke="none">
<path d="M3704 12518 c2 -18 7 -41 11 -50 6 -15 2 -18 -30 -18 -29 0 -108 -36
-334 -152 -163 -83 -308 -159 -322 -169 -14 -10 -59 -73 -99 -140 l-73 -121
12 -176 c17 -276 22 -251 -51 -300 -83 -55 -194 -157 -258 -237 -32 -40 -59
-65 -71 -65 -21 0 -39 -34 -44 -85 -1 -16 -13 -52 -25 -80 -22 -51 -51 -135
-70 -204 -13 -50 -27 -172 -45 -416 -9 -110 -18 -216 -21 -235 -17 -107 -17
-128 4 -134 15 -5 26 -27 42 -79 31 -103 90 -221 154 -306 44 -59 54 -79 50
-100 -7 -34 16 -57 42 -43 14 8 28 2 64 -29 l47 -39 -9 -63 c-16 -114 -89
-691 -103 -812 -8 -66 -19 -154 -24 -195 -26 -189 -62 -470 -81 -629 -11 -96
-23 -178 -25 -182 -3 -3 -9 -56 -15 -115 -5 -60 -15 -140 -20 -179 -19 -134
-34 -250 -60 -475 -27 -228 -33 -270 -45 -335 -8 -38 -16 -104 -19 -145 -5
-75 -47 -423 -66 -555 -10 -66 -30 -230 -65 -525 -9 -69 -20 -159 -25 -200
-35 -260 -64 -491 -105 -850 -9 -74 -24 -191 -35 -260 -10 -69 -22 -159 -25
-200 -5 -67 -24 -231 -55 -475 -6 -44 -26 -217 -45 -385 -19 -168 -39 -339
-44 -380 -6 -41 -17 -145 -26 -230 -39 -362 -63 -552 -71 -560 -10 -10 -151
-60 -339 -120 -503 -160 -602 -194 -620 -209 -19 -16 -335 -224 -376 -247 -10
-6 -27 -18 -37 -27 -10 -10 -23 -17 -29 -17 -6 0 -14 -7 -17 -16 -6 -17 -8
-134 -2 -134 2 0 63 20 135 44 72 25 131 40 131 36 0 -5 -11 -20 -25 -34 -25
-25 -34 -56 -16 -56 5 0 11 10 13 22 2 12 9 23 17 26 9 3 11 -2 8 -14 -3 -11
-11 -82 -17 -159 -16 -182 -24 -213 -55 -221 -16 -4 -25 -13 -25 -26 0 -44
-18 -58 -75 -58 -30 0 -55 -4 -55 -9 0 -26 -32 -40 -74 -35 -48 7 -58 -1 -49
-35 6 -23 7 -23 127 -17 194 10 446 14 450 7 2 -3 30 -5 63 -3 32 1 65 2 73 1
8 0 92 -3 185 -6 179 -5 246 3 317 39 67 33 160 49 343 58 99 5 248 14 330 19
584 39 697 42 1444 45 686 3 771 5 816 20 62 21 230 47 259 41 43 -10 325 -34
456 -40 74 -3 198 -13 275 -21 77 -8 248 -19 380 -24 132 -5 254 -11 270 -12
28 -3 30 -1 30 32 0 34 -2 35 -47 44 l-48 9 0 53 c0 28 -6 87 -14 130 -8 44
-17 126 -20 183 -4 57 -10 134 -16 170 -5 36 -14 120 -20 186 -6 66 -17 167
-25 225 -8 58 -19 161 -25 230 -6 69 -20 197 -30 285 -10 88 -21 194 -25 235
-4 41 -13 129 -21 195 -14 126 -58 537 -74 690 -5 50 -16 142 -24 205 -8 63
-20 158 -25 210 -27 253 -61 547 -66 568 -3 12 -1 32 5 43 11 19 9 48 -16 244
-2 22 -15 130 -28 240 -15 125 -31 217 -43 245 -11 25 -20 61 -21 80 -1 19 -9
94 -17 165 -29 248 -35 301 -60 540 -14 132 -32 294 -40 360 -8 66 -17 149
-19 185 -3 36 -14 146 -26 245 -12 99 -19 201 -16 226 4 25 -3 119 -13 210
-11 90 -25 207 -31 259 -6 52 -20 127 -30 165 -11 39 -31 171 -45 295 -14 124
-36 320 -50 435 -43 358 -45 377 -56 480 -5 55 -14 126 -18 157 -4 33 -4 61 1
66 6 6 5 41 -1 88 -6 44 -20 155 -32 249 -12 93 -28 187 -35 209 -23 64 -18
81 33 123 31 26 56 38 77 38 29 0 31 3 32 35 0 26 13 52 52 103 60 79 133 224
158 314 12 44 23 65 37 69 21 6 20 2 3 159 -10 89 -18 188 -22 280 -12 296
-40 433 -119 585 -13 25 -26 66 -30 93 -6 44 -12 51 -41 48 -6 -1 -40 32 -76
73 -72 82 -146 150 -220 204 -65 46 -75 74 -66 176 3 44 8 135 9 202 l3 120
-80 127 -79 128 -175 91 c-96 50 -238 124 -315 164 l-140 73 -122 1 -123 0
-25 50 c-14 28 -27 50 -30 50 -2 0 -3 -15 -1 -32z m-813 -1174 c4 -27 2 -53
-2 -58 -6 -6 -9 -5 -9 2 0 21 -20 13 -29 -11 -10 -25 -43 -42 -103 -52 -66
-11 -128 -82 -128 -148 0 -13 -13 -36 -31 -53 -17 -16 -44 -46 -60 -68 -35
-46 -49 -29 -25 29 9 21 16 46 16 57 0 28 54 103 135 184 75 76 204 176 220
171 6 -2 13 -26 16 -53z m1957 -6 c132 -97 272 -250 272 -298 0 -16 4 -31 9
-34 5 -3 12 -22 15 -41 4 -21 13 -35 21 -35 8 0 15 5 15 10 0 6 4 10 9 10 20
0 92 -200 105 -290 7 -51 9 -54 -51 79 -30 67 -35 73 -49 60 -11 -12 -13 -26
-7 -60 l8 -44 5 45 6 45 31 -65 c37 -79 66 -178 61 -211 -3 -19 -12 -8 -46 59
-24 46 -40 87 -37 92 11 19 -213 246 -337 343 -72 56 -78 62 -83 106 -4 25 -9
58 -11 74 -3 15 -1 27 4 27 5 0 45 -27 90 -60 100 -75 261 -244 269 -283 7
-32 28 -46 46 -28 8 8 6 16 -9 30 -10 11 -37 41 -59 67 -97 113 -146 161 -240
232 -55 41 -103 80 -107 86 -12 17 -9 126 2 126 6 0 37 -19 68 -42z m-1970
-157 c7 -72 -4 -93 -81 -146 -92 -64 -102 -67 -93 -25 3 18 6 49 6 69 0 34 6
41 68 89 37 29 74 51 82 49 9 -1 16 -16 18 -36z m-88 25 c0 -2 -16 -16 -35
-30 l-35 -27 0 25 c0 24 12 32 53 35 9 0 17 -1 17 -3z m-100 -59 c0 -13 -13
-36 -30 -52 -26 -25 -30 -26 -30 -9 0 23 36 84 50 84 5 0 10 -10 10 -23z m-10
-114 c0 -45 0 -46 -20 -28 -11 10 -20 23 -20 28 0 10 29 47 37 47 1 0 3 -21 3
-47z m185 -5 c-11 -37 -52 -68 -91 -68 -19 0 -34 3 -34 8 1 10 102 81 118 82
9 0 11 -7 7 -22z m-229 -25 c19 -25 17 -78 -3 -94 -9 -8 -48 -50 -86 -93 l-70
-80 7 69 c4 38 11 75 15 83 15 27 106 131 115 131 5 1 15 -7 22 -16z m2244
-22 c86 -65 203 -174 246 -232 40 -53 64 -109 45 -109 -5 0 -17 12 -27 28 -32
50 -148 164 -234 230 -105 81 -96 73 -105 100 -10 34 15 28 75 -17z m-2434
-101 c-6 -46 -73 -206 -83 -196 -10 9 71 246 84 246 3 0 3 -22 -1 -50z m284
36 c0 -14 -29 -31 -38 -22 -2 3 -2 12 1 21 8 19 37 20 37 1z m-107 -96 c-10
-8 -45 -46 -77 -85 -32 -38 -63 -74 -67 -79 -5 -6 -9 1 -9 16 0 30 115 182
130 173 5 -3 15 5 22 17 l13 23 3 -25 c3 -15 -3 -30 -15 -40z m-197 -112 c-5
-40 -20 -88 -41 -133 -34 -68 -35 -69 -35 -34 0 45 63 229 78 229 2 0 1 -28
-2 -62z m-36 -199 c-18 -42 -25 -28 -9 18 7 21 14 32 17 25 2 -7 -2 -26 -8
-43z m2873 -4 c9 -25 14 -45 12 -45 -7 0 -26 40 -35 72 -14 45 6 23 23 -27z
m-343 -344 c0 -12 -20 -25 -27 -18 -7 7 6 27 18 27 5 0 9 -4 9 -9z"/>
</g>
</svg>
