<?xml version="1.0" standalone="no"?>
<!DOCTYPE svg PUBLIC "-//W3C//DTD SVG 20010904//EN"
 "http://www.w3.org/TR/2001/REC-SVG-20010904/DTD/svg10.dtd">
<svg version="1.0" xmlns="http://www.w3.org/2000/svg"
 width="30.000000pt" height="30.000000pt" viewBox="0 0 1280.000000 1242.000000"
 preserveAspectRatio="xMidYMid meet">
<metadata>
Created by potrace 1.15, written by Peter Selinger 2001-2017
</metadata>
<g transform="translate(0.000000,1242.000000) scale(0.100000,-0.100000)"
fill="#ffffff" stroke="none">
<path d="M6114 12401 c-83 -38 -130 -124 -149 -272 -9 -76 -57 -160 -137 -244
-75 -80 -165 -143 -467 -331 -79 -49 -164 -108 -190 -131 -40 -36 -44 -42 -28
-49 11 -4 121 11 250 34 422 76 678 97 947 82 224 -13 339 -29 659 -90 159
-31 211 -36 211 -22 0 17 -62 64 -245 188 -400 269 -480 352 -506 526 -27 182
-50 239 -116 286 -61 43 -162 54 -229 23z"/>
<path d="M5490 11365 c-10 -13 -12 -71 -7 -272 7 -277 11 -297 56 -274 21 11
21 17 21 271 0 222 -2 261 -16 274 -20 20 -38 20 -54 1z"/>
<path d="M5838 11363 c-6 -8 -9 -44 -7 -86 4 -85 3 -185 -1 -282 -4 -87 7
-110 63 -127 55 -16 270 -16 322 0 22 7 105 17 184 21 191 10 186 5 177 191
-10 191 -19 247 -44 273 -21 21 -28 21 -352 22 -257 0 -334 -2 -342 -12z"/>
<path d="M6842 11354 c-9 -16 -6 -459 4 -521 5 -36 36 -52 61 -32 14 12 14 44
8 279 -4 153 -11 270 -17 278 -15 17 -45 15 -56 -4z"/>
<path d="M5930 10783 c-207 -11 -534 -50 -585 -69 -23 -9 -14 -38 14 -42 22
-4 23 -6 17 -75 -3 -40 -8 -100 -12 -134 -5 -54 -3 -67 16 -98 20 -33 26 -36
54 -31 189 34 1055 45 1386 17 l164 -13 22 27 c30 38 36 78 19 128 -8 23 -15
72 -15 108 0 59 2 67 21 72 13 4 20 12 17 24 -4 21 -56 32 -258 57 -240 30
-618 43 -860 29z m154 -89 c3 -26 6 -60 6 -76 l0 -29 -82 3 -83 3 -3 73 -3 72
79 0 79 0 7 -46z m206 -29 l0 -75 -80 0 -80 0 0 75 0 75 80 0 80 0 0 -75z
m188 69 c20 -6 22 -12 22 -75 l0 -69 -80 0 -80 0 0 75 0 75 58 0 c31 0 67 -3
80 -6z m-604 -41 c3 -21 6 -52 6 -69 0 -30 -2 -32 -46 -38 -84 -11 -81 -13
-87 61 -3 38 -3 71 0 75 2 5 30 8 62 8 l58 0 7 -37z m770 31 l46 -7 0 -68 c0
-78 5 -75 -97 -63 l-53 7 0 62 c0 34 3 65 7 68 8 9 37 9 97 1z m-944 -73 c0
-78 -3 -81 -76 -81 l-44 0 0 69 0 70 33 4 c92 11 87 15 87 -62z m1138 -14 l3
-68 -53 3 -53 3 -3 68 -3 68 53 -3 53 -3 3 -68z m-1306 -4 c3 -38 4 -69 4 -70
-1 -1 -25 -5 -54 -9 l-52 -7 0 71 0 71 38 4 c20 2 42 4 48 5 7 1 13 -23 16
-65z m1432 51 c12 -5 16 -21 16 -71 0 -55 -2 -64 -16 -59 -9 3 -31 6 -50 6
l-34 0 0 65 0 65 34 0 c19 0 41 -3 50 -6z"/>
<path d="M5740 10319 c-91 -6 -168 -14 -172 -17 -11 -12 -14 -227 -3 -225 6 0
111 7 235 14 152 8 359 10 635 6 l410 -6 -5 107 -5 107 -95 6 c-184 13 -837
17 -1000 8z"/>
<path d="M5386 10278 c-18 -28 -26 -212 -9 -229 6 -6 21 -9 34 -7 23 3 24 8
33 112 9 112 5 138 -27 144 -9 2 -22 -7 -31 -20z"/>
<path d="M6953 10285 c-11 -19 2 -204 15 -217 5 -5 20 -8 33 -6 23 3 24 6 23
93 -1 119 -8 145 -39 145 -13 0 -28 -7 -32 -15z"/>
<path d="M5825 10044 c-182 -13 -445 -35 -471 -40 -29 -4 -33 -10 -47 -62 -28
-101 -31 -138 -13 -193 33 -100 24 -96 188 -81 79 6 364 15 633 18 489 6 556
4 931 -33 60 -5 61 -5 72 23 35 91 41 175 18 263 -8 29 -17 55 -20 58 -2 3
-87 14 -188 25 -147 15 -269 20 -618 22 -239 2 -457 2 -485 0z"/>
<path d="M5800 9639 c-74 -4 -192 -13 -261 -19 l-127 -12 -13 -151 -14 -151
-35 -7 c-19 -3 -74 -12 -122 -19 -48 -7 -91 -16 -96 -19 -16 -11 -42 -103 -42
-150 0 -56 17 -121 32 -121 6 0 16 -7 23 -16 11 -16 19 -16 106 -1 51 9 95 14
97 12 3 -3 -89 -964 -104 -1076 l-5 -45 -108 -17 c-167 -27 -174 -30 -199 -83
-41 -83 -38 -176 6 -226 19 -23 44 -22 167 1 55 11 101 19 102 17 2 -1 -37
-407 -87 -902 -242 -2427 -330 -3316 -330 -3332 0 -16 83 -17 1451 -20 l1451
-4 -6 39 c-3 21 -17 137 -31 258 -27 232 -224 1918 -376 3209 -49 423 -89 769
-87 771 2 1 49 -2 105 -7 128 -10 144 -5 161 56 16 62 15 113 -4 170 -20 58
-28 62 -180 76 -65 6 -119 12 -120 13 -1 1 -29 243 -63 537 -34 294 -65 550
-68 568 l-5 33 100 -3 c84 -2 104 0 118 14 25 25 29 106 9 187 -9 39 -18 71
-19 72 0 0 -55 6 -121 12 l-120 12 -18 155 c-10 85 -19 155 -20 156 -1 1 -99
7 -217 13 -237 12 -720 12 -930 0z"/>
<path d="M5295 9609 c-14 -22 -43 -254 -33 -271 10 -21 41 -24 56 -5 14 16 47
250 39 271 -7 18 -52 22 -62 5z"/>
<path d="M7021 9597 c-16 -20 7 -226 27 -249 18 -21 23 -22 46 -5 17 12 17 21
6 128 -7 63 -17 120 -23 127 -13 16 -42 15 -56 -1z"/>
<path d="M7124 8956 c-18 -14 -17 -30 40 -502 32 -269 62 -497 67 -506 11 -21
42 -23 58 -5 8 11 -3 132 -44 478 -30 255 -57 479 -60 496 -7 40 -35 58 -61
39z"/>
<path d="M5196 8904 c-9 -8 -16 -19 -16 -23 0 -4 -25 -214 -55 -467 -31 -252
-55 -472 -53 -489 3 -31 29 -44 56 -27 8 6 31 159 67 463 64 523 65 537 45
549 -21 13 -26 12 -44 -6z"/>
<path d="M7290 7504 c-15 -17 -20 30 115 -1074 36 -294 92 -755 125 -1025 33
-269 89 -728 124 -1020 36 -291 79 -647 96 -790 18 -143 37 -266 42 -272 15
-19 46 -16 57 5 6 11 3 69 -9 167 -21 165 -124 1010 -230 1885 -129 1062 -211
1735 -234 1922 -13 104 -29 195 -36 203 -16 19 -34 19 -50 -1z"/>
<path d="M5030 7458 c-5 -13 -18 -120 -30 -238 -12 -118 -35 -345 -51 -505
-225 -2180 -347 -3389 -343 -3400 12 -30 59 -27 68 3 10 33 427 4134 422 4148
-9 23 -55 17 -66 -8z"/>
<path d="M1450 4598 c-121 -7 -169 -14 -180 -24 -13 -13 -15 -111 -12 -787 3
-646 1 -781 -11 -827 -11 -42 -12 -67 -5 -105 10 -48 24 -1120 27 -2041 l1
-421 1983 -7 c2708 -9 6577 -24 8112 -31 l1270 -6 -28 25 -28 26 61 -7 c40 -4
60 -2 60 5 0 6 -217 210 -482 454 -370 340 -572 516 -863 754 -545 445 -510
419 -580 434 -33 7 -96 23 -141 36 l-80 23 -95 -24 -94 -24 -40 24 c-22 13
-55 39 -74 59 l-34 35 27 11 27 10 -62 77 c-166 205 -333 382 -403 428 -13 9
-82 34 -153 56 -127 39 -196 58 -678 185 -137 36 -272 72 -300 79 -27 7 -135
32 -240 55 -104 23 -228 52 -275 65 -151 42 -418 50 -1705 50 -632 -1 -1203
-4 -1269 -9 -107 -7 -119 -10 -124 -29 -5 -20 -10 -20 -244 -14 l-238 5 -90
86 c-172 163 -258 232 -495 396 -66 45 -147 106 -180 135 -33 28 -118 93 -189
145 -70 51 -154 117 -185 146 -43 39 -95 71 -202 122 -80 39 -173 93 -209 121
-36 28 -78 59 -94 68 -16 10 -65 42 -110 71 -119 77 -187 93 -476 112 -85 5
-250 23 -367 40 -222 31 -263 33 -533 18z m108 -75 c-10 -2 -28 -2 -40 0 -13
2 -5 4 17 4 22 1 32 -1 23 -4z m150 -10 c-15 -2 -42 -2 -60 0 -18 2 -6 4 27 4
33 0 48 -2 33 -4z m992 -159 c0 -2 -9 0 -20 6 -11 6 -20 13 -20 16 0 2 9 0 20
-6 11 -6 20 -13 20 -16z m50 -30 c0 -2 -9 0 -20 6 -11 6 -20 13 -20 16 0 2 9
0 20 -6 11 -6 20 -13 20 -16z m173 -98 c81 -48 147 -89 147 -92 0 -3 -15 3
-32 14 -18 11 -88 52 -155 92 -68 40 -123 75 -123 77 0 2 3 2 8 0 4 -2 73 -43
155 -91z m8836 -3104 l26 -24 -30 20 c-16 11 -57 46 -90 77 l-60 57 64 -54
c35 -29 75 -63 90 -76z m576 -492 c77 -70 153 -143 170 -162 l30 -33 -35 31
c-58 51 -323 295 -345 317 -52 52 50 -34 180 -153z"/>
</g>
</svg>
